##     ## ##    ## ####  #######  ##     ## ######## 
##     ## ###   ##  ##  ##     ## ##     ## ##       
##     ## ####  ##  ##  ##     ## ##     ## ##       
##     ## ## ## ##  ##  ##     ## ##     ## ######   
##     ## ##  ####  ##  ##  ## ## ##     ## ##       
##     ## ##   ###  ##  ##    ##  ##     ## ##       
 #######  ##    ## ####  ##### ##  #######  ######## 


#############Credits To DiNGiE & UNiQUE#############


General
Complete name : Magic Mike 2012 WEBRip CAM AUDIO x264 AAC-UNiQUE.mp4
Format : MPEG-4
Format profile : Base Media
Codec ID : isom
File size : 997 MiB
Duration : 1h 50mn
Overall bit rate mode : Variable
Overall bit rate : 1 267 Kbps
Encoded date : UTC 2012-08-12 18:09:06

Video
ID : 1
Format : AVC
Format/Info : Advanced Video Codec
Format profile : High@L4.1
Format settings, CABAC : Yes
Format settings, ReFrames : 3 frames
Codec ID : avc1
Codec ID/Info : Advanced Video Coding
Duration : 1h 50mn
Bit rate mode : Variable
Bit rate : 1 201 Kbps
Maximum bit rate : 40.0 Mbps
Width : 720 pixels
Height : 304 pixels
Display aspect ratio : 2.35:1
Frame rate mode : Constant
Frame rate : 25.000 fps
Color space : YUV
Chroma subsampling : 4:2:0
Bit depth : 8 bits
Scan type : Progressive
Bits/(Pixel*Frame) : 0.219
Stream size : 945 MiB (95%)
Writing library : x264 core 125 r2208 d9d2288

Audio
ID : 2
Format : AAC
Format/Info : Advanced Audio Codec
Format profile : LC
Codec ID : 40
Duration : 1h 50mn
Bit rate mode : Variable
Bit rate : 62.4 Kbps
Maximum bit rate : 93.5 Kbps
Channel(s) : 2 channels
Channel positions : Front: L R
Sampling rate : 32.0 KHz
Compression mode : Lossy
Stream size : 49.1 MiB (5%)
Language : English
Encoded date : UTC 2012-08-12 18:09:39

Sources : Video - Supermaik.2012.D.WEBRip-IRONCLUB - Thanks! 
Audio - ILLUMINATI - Thanks! 

Storyline
A male stripper teaches a younger performer how to party, pick up women, and make easy money.

iMDB:
www.imdb.com/title/tt1915581


Screen Shots:
   
http://postimg.com/79000/photo-78784.jpg
 
http://postimg.com/79000/photo-78785.jpg
 
http://postimg.com/79000/photo-78786.jpg
 
http://postimg.com/79000/photo-78787.jpg


#############Credits To DiNGiE & UNiQUE#############


##     ## ##    ## ####  #######  ##     ## ######## 
##     ## ###   ##  ##  ##     ## ##     ## ##       
##     ## ####  ##  ##  ##     ## ##     ## ##       
##     ## ## ## ##  ##  ##     ## ##     ## ######   
##     ## ##  ####  ##  ##  ## ## ##     ## ##       
##     ## ##   ###  ##  ##    ##  ##     ## ##       
 #######  ##    ## ####  ##### ##  #######  ######## 